<svg xmlns="http://www.w3.org/2000/svg" width="256" height="256" viewBox="0 0 256 256">
  <defs>
    <linearGradient id="g" x1="0%" y1="0%" x2="100%" y2="100%">
      <stop offset="0%" stop-color="#f43f5e"/>
      <stop offset="50%" stop-color="#ec4899"/>
      <stop offset="100%" stop-color="#8b5cf6"/>
    </linearGradient>
    <filter id="s" x="-20%" y="-20%" width="140%" height="140%">
      <feDropShadow dx="0" dy="6" stdDeviation="8" flood-color="#000" flood-opacity="0.18"/>
    </filter>
  </defs>
  <rect x="24" y="24" width="208" height="208" rx="48" fill="url(#g)"/>
  <g filter="url(#s)">
    <path fill="#fff" d="M128 182c-2 0-4-.7-5.6-2.2l-44.8-41.6c-12.8-11.8-14-31.6-2.6-44.6 10.2-11.6 27.2-13 39-3.4l3.9 3.3 3.9-3.3c11.8-9.6 28.8-8.2 39 3.4 11.4 13 10.2 32.8-2.6 44.6l-44.8 41.6c-1.6 1.5-3.6 2.2-5.4 2.2Z"/>
  </g>
</svg>

